<svg version="1.1" id="Capa_1" xmlns="http://www.w3.org/2000/svg" xmlns:xlink="http://www.w3.org/1999/xlink" x="0px" y="0px" viewBox="0 0 512 512" style="enable-background:new 0 0 512 512;" xml:space="preserve">
<path style="fill:#F05540;" d="M402.133,232.4L393.6,116.133c-1.067-10.667-8.533-19.2-19.2-22.4
	c-78.933-18.133-157.867-18.133-236.8,0c-10.667,2.133-18.133,11.733-19.2,22.4L109.867,232.4L92.8,227.067v150.4h320V228.133
	L402.133,232.4z" id="id_101"></path>
<path style="fill: rgb(199, 249, 255);" d="M380.8,208.933l-7.467-91.733c0-2.133-2.133-4.267-3.2-4.267C332.8,104.4,294.4,100.133,256,100.133
	s-75.733,4.267-114.133,12.8c-2.133,0-3.2,2.133-3.2,4.267l-6.4,91.733C214.4,194,297.6,194,380.8,208.933z" id="id_102"></path>
<g>
<path style="fill:#F3705A;" d="M145.067,377.467c3.2-16,4.267-34.133,4.267-52.267c0-114.133-28.8-144-64-144s-64,29.867-64,144
		c0,18.133,2.133,36.267,4.267,52.267H145.067z" id="id_103"></path>
<path style="fill:#F3705A;" d="M486.4,377.467c3.2-16,4.267-34.133,4.267-52.267c0-114.133-28.8-144-64-144s-64,29.867-64,144
		c0,18.133,2.133,36.267,4.267,52.267H486.4z" id="id_104"></path>
</g>
<path style="fill:#FFD15C;" d="M85.333,275.067c-16,0-29.867-12.8-29.867-29.867s12.8-29.867,29.867-29.867
	c16,0,29.867,12.8,29.867,29.867S101.333,275.067,85.333,275.067z" id="id_105"></path>
<path style="fill:#415A6B;" d="M85.333,221.733c12.8,0,24.533,10.667,24.533,24.533c0,12.8-10.667,24.533-24.533,24.533
	c-12.8,0-24.533-10.667-24.533-24.533C60.8,232.4,71.467,221.733,85.333,221.733 M85.333,211.067c-19.2,0-35.2,16-35.2,35.2
	s16,35.2,35.2,35.2s35.2-16,35.2-35.2C119.467,227.067,104.533,211.067,85.333,211.067L85.333,211.067z" id="id_106"></path>
<path style="fill:#FFD15C;" d="M426.667,275.067c-16,0-28.8-12.8-28.8-29.867s12.8-29.867,28.8-29.867s29.867,12.8,29.867,29.867
	S442.667,275.067,426.667,275.067z" id="id_107"></path>
<g>
<path style="fill:#415A6B;" d="M426.667,221.733c12.8,0,24.533,10.667,24.533,24.533c0,12.8-10.667,24.533-24.533,24.533
		c-12.8,0-23.467-10.667-23.467-24.533C403.2,232.4,413.867,221.733,426.667,221.733 M426.667,211.067
		c-19.2,0-34.133,16-34.133,35.2s16,35.2,34.133,35.2c19.2,0,35.2-16,35.2-35.2S445.867,211.067,426.667,211.067L426.667,211.067z" id="id_108"></path>
<path style="fill:#415A6B;" d="M99.2,431.867H48c-7.467,0-13.867-6.4-13.867-13.867v-40.533H112V418
		C113.067,425.467,106.667,431.867,99.2,431.867z" id="id_109"></path>
<path style="fill:#415A6B;" d="M464,431.867h-51.2c-7.467,0-13.867-6.4-13.867-13.867v-40.533H476.8V418
		C477.867,425.467,471.467,431.867,464,431.867z" id="id_110"></path>
</g>
<path style="fill:#E8EAE9;" d="M499.2,393.467H12.8c-7.467,0-12.8-5.333-12.8-12.8v-21.333c0-7.467,5.333-12.8,12.8-12.8h486.4
	c7.467,0,12.8,5.333,12.8,12.8v21.333C512,387.067,506.667,393.467,499.2,393.467z" id="id_111"></path>
<g>
<path style="fill:#F3705A;" d="M311.467,277.2H217.6c-6.4,0-11.733-5.333-11.733-11.733l0,0c0-6.4,5.333-11.733,11.733-11.733
		h93.867c6.4,0,11.733,5.333,11.733,11.733l0,0C323.2,271.867,317.867,277.2,311.467,277.2z" id="id_112"></path>
<path style="fill:#F3705A;" d="M311.467,319.867H217.6c-6.4,0-11.733-5.333-11.733-11.733l0,0c0-6.4,5.333-11.733,11.733-11.733
		h93.867c6.4,0,11.733,5.333,11.733,11.733l0,0C323.2,314.533,317.867,319.867,311.467,319.867z" id="id_113"></path>
</g>
<g>
</g>
<g>
</g>
<g>
</g>
<g>
</g>
<g>
</g>
<g>
</g>
<g>
</g>
<g>
</g>
<g>
</g>
<g>
</g>
<g>
</g>
<g>
</g>
<g>
</g>
<g>
</g>
<g>
</g>
</svg>