<?xml version="1.0" encoding="UTF-8" standalone="no"?> <svg width="64" height="64" viewBox="0 0 64 64" fill="none" xmlns="http://www.w3.org/2000/svg">
<path d="M26.0501 11.0002L14.3701 3.42017C13.946 3.14951 13.4529 3.0067 12.9497 3.00881C12.4466 3.01092 11.9547 3.15786 11.5328 3.43207C11.111 3.70627 10.777 4.09615 10.5708 4.5551C10.3646 5.01406 10.2949 5.52267 10.3701 6.02017L13.1701 23.3902C13.2062 23.5176 13.2671 23.6366 13.3492 23.7404C13.4313 23.8443 13.533 23.931 13.6487 23.9955C13.7643 24.0601 13.8915 24.1012 14.023 24.1166C14.1545 24.132 14.2877 24.1213 14.4151 24.0852C14.5425 24.0491 14.6615 23.9882 14.7654 23.9061C14.8692 23.824 14.9559 23.7222 15.0204 23.6066C15.085 23.491 15.1261 23.3638 15.1415 23.2323C15.1569 23.1008 15.1462 22.9676 15.1101 22.8402L15.0301 22.3402L25.1501 12.7402C25.3717 12.8026 25.6081 12.7866 25.8193 12.6949C26.0305 12.6033 26.2036 12.4415 26.3093 12.237C26.4151 12.0325 26.4471 11.7978 26.3999 11.5725C26.3526 11.3471 26.2291 11.145 26.0501 11.0002V11.0002Z" fill="url(#paint0_linear)"/>
<path d="M52.4701 3.43007C52.0481 3.15346 51.5546 3.0061 51.0501 3.0061C50.5455 3.0061 50.052 3.15346 49.6301 3.43007L37.9301 11.0001C37.7888 11.0956 37.6744 11.2256 37.5975 11.3778C37.5207 11.53 37.4841 11.6993 37.4911 11.8696C37.4981 12.0399 37.5485 12.2056 37.6376 12.351C37.7267 12.4963 37.8515 12.6165 38.0001 12.7001C39.6301 14.1401 46.4201 20.1701 49.0001 22.4001L48.9501 22.7701V22.8201C48.9126 22.9475 48.9007 23.081 48.9148 23.213C48.929 23.345 48.969 23.4729 49.0326 23.5894C49.0963 23.706 49.1822 23.8088 49.2856 23.8922C49.3889 23.9755 49.5077 24.0376 49.6351 24.0751C49.8923 24.1507 50.1691 24.121 50.4044 23.9925C50.521 23.9289 50.6238 23.8429 50.7072 23.7396C50.7905 23.6362 50.8526 23.5175 50.8901 23.3901L53.6201 6.00007C53.6979 5.50634 53.6307 5.00061 53.4265 4.54437C53.2224 4.08813 52.8901 3.70101 52.4701 3.43007V3.43007Z" fill="url(#paint1_linear)"/>
<path d="M47.48 39.3502C47.2148 39.3502 46.9604 39.4555 46.7729 39.6431C46.5854 39.8306 46.48 40.0849 46.48 40.3502V42.0002L42.32 45.2302L35.32 48.4602H29.2C29.2 48.4602 22 45.5602 21.85 45.5302C21.7 45.5002 18.85 42.7202 17.52 41.3502V40.3502C17.52 40.0849 17.4147 39.8306 17.2271 39.6431C17.0396 39.4555 16.7852 39.3502 16.52 39.3502C16.2548 39.3502 16.0004 39.4555 15.8129 39.6431C15.6254 39.8306 15.52 40.0849 15.52 40.3502V46.0002C15.73 55.7302 48.27 55.7302 48.52 46.0002V40.3502C48.5201 40.2154 48.493 40.082 48.4403 39.958C48.3875 39.834 48.3103 39.7219 48.2131 39.6285C48.116 39.5351 48.001 39.4623 47.875 39.4145C47.749 39.3667 47.6147 39.3448 47.48 39.3502Z" fill="url(#paint2_linear)"/>
<path d="M32.0001 9.68018C26.7275 9.68282 21.6714 11.7778 17.9422 15.5052C14.213 19.2326 12.1154 24.2876 12.1101 29.5602C13.2001 55.9402 50.7801 55.9302 51.8701 29.5602C51.8648 24.291 49.77 19.2391 46.0451 15.5123C42.3202 11.7855 37.2693 9.68812 32.0001 9.68018V9.68018Z" fill="url(#paint3_linear)"/>
<path d="M38.4701 31.6001C38.2048 31.6001 37.9505 31.7055 37.7629 31.893C37.5754 32.0805 37.4701 32.3349 37.4701 32.6001C37.4579 33.1289 37.259 33.6364 36.9085 34.0327C36.558 34.4289 36.0786 34.6883 35.5552 34.765C35.0318 34.8416 34.4982 34.7306 34.0488 34.4515C33.5995 34.1724 33.2633 33.7432 33.1 33.2401C33.65 32.9701 34.73 30.7001 35.1 30.2401C35.265 29.9465 35.3507 29.615 35.3486 29.2782C35.3466 28.9414 35.2569 28.6109 35.0884 28.3193C34.9199 28.0277 34.6783 27.785 34.3876 27.6151C34.0968 27.4451 33.7668 27.3538 33.43 27.3501H30.59C30.2478 27.3528 29.9125 27.447 29.6189 27.6228C29.3253 27.7986 29.084 28.0497 28.92 28.3501C28.7572 28.6457 28.6718 28.9776 28.6718 29.3151C28.6718 29.6526 28.7572 29.9845 28.92 30.2801C29.27 30.7801 30.34 33.0301 30.92 33.2801C30.7691 33.7952 30.4374 34.2386 29.9858 34.5289C29.5343 34.8191 28.9932 34.9367 28.4618 34.8601C27.9305 34.7836 27.4447 34.5179 27.0935 34.1119C26.7423 33.7059 26.5494 33.1869 26.55 32.6501C26.55 32.3849 26.4447 32.1305 26.2572 31.943C26.0696 31.7555 25.8153 31.6501 25.55 31.6501C25.2848 31.6501 25.0305 31.7555 24.8429 31.943C24.6554 32.1305 24.55 32.3849 24.55 32.6501C24.5523 33.6977 24.9432 34.7072 25.6471 35.4831C26.3509 36.259 27.3176 36.7461 28.3601 36.8501C28.7345 37.4912 29.2703 38.0231 29.9142 38.3927C30.5581 38.7623 31.2876 38.9568 32.03 38.9568C32.7725 38.9568 33.502 38.7623 34.1459 38.3927C34.7898 38.0231 35.3256 37.4912 35.7001 36.8501C36.7398 36.7461 37.704 36.26 38.406 35.486C39.108 34.712 39.4978 33.705 39.5 32.6601C39.5085 32.5213 39.4878 32.3822 39.4394 32.2518C39.3911 32.1214 39.316 32.0025 39.2191 31.9027C39.1221 31.8029 39.0054 31.7245 38.8765 31.6724C38.7475 31.6203 38.6091 31.5957 38.4701 31.6001V31.6001Z" fill="url(#paint4_linear)"/>
<path d="M39.2401 19.23C38.0059 19.23 36.8221 19.7196 35.9485 20.5913C35.0749 21.4631 34.5827 22.6458 34.5801 23.88C34.5801 24.1452 34.6854 24.3996 34.873 24.5871C35.0605 24.7746 35.3149 24.88 35.5801 24.88C35.8453 24.88 36.0996 24.7746 36.2872 24.5871C36.4747 24.3996 36.5801 24.1452 36.5801 23.88C36.6216 23.204 36.9194 22.5693 37.4127 22.1053C37.9061 21.6413 38.5578 21.383 39.2351 21.383C39.9123 21.383 40.5641 21.6413 41.0574 22.1053C41.5508 22.5693 41.8486 23.204 41.8901 23.88C41.8901 24.1452 41.9954 24.3996 42.183 24.5871C42.3705 24.7746 42.6249 24.88 42.8901 24.88C43.1553 24.88 43.4096 24.7746 43.5972 24.5871C43.7847 24.3996 43.8901 24.1452 43.8901 23.88C43.8874 22.6475 43.3967 21.4663 42.5252 20.5949C41.6537 19.7234 40.4725 19.2326 39.2401 19.23Z" fill="url(#paint5_linear)"/>
<path d="M27.4201 23.88C27.4201 24.1452 27.5255 24.3995 27.713 24.5871C27.9005 24.7746 28.1549 24.88 28.4201 24.88C28.6853 24.88 28.9397 24.7746 29.1272 24.5871C29.3148 24.3995 29.4201 24.1452 29.4201 23.88C29.3646 22.6827 28.8499 21.5529 27.983 20.7252C27.1161 19.8976 25.9637 19.4358 24.7651 19.4358C23.5666 19.4358 22.4141 19.8976 21.5472 20.7252C20.6803 21.5529 20.1656 22.6827 20.1101 23.88C20.1101 24.1452 20.2155 24.3995 20.403 24.5871C20.5905 24.7746 20.8449 24.88 21.1101 24.88C21.3753 24.88 21.6297 24.7746 21.8172 24.5871C22.0047 24.3995 22.1101 24.1452 22.1101 23.88C22.1516 23.204 22.4494 22.5693 22.9427 22.1053C23.4361 21.6413 24.0879 21.383 24.7651 21.383C25.4424 21.383 26.0941 21.6413 26.5875 22.1053C27.0808 22.5693 27.3786 23.204 27.4201 23.88V23.88Z" fill="url(#paint6_linear)"/>
<path d="M44.76 30.8201C44.4948 30.8201 44.2404 30.9254 44.0529 31.113C43.8654 31.3005 43.76 31.5549 43.76 31.8201C43.76 32.0853 43.8654 32.3396 44.0529 32.5272C44.2404 32.7147 44.4948 32.8201 44.76 32.8201C47.2284 32.8227 49.5949 33.8044 51.3403 35.5498C53.0856 37.2952 54.0674 39.6617 54.07 42.1301C54.07 42.3953 54.1754 42.6496 54.3629 42.8372C54.5504 43.0247 54.8048 43.1301 55.07 43.1301C55.3352 43.1301 55.5896 43.0247 55.7771 42.8372C55.9647 42.6496 56.07 42.3953 56.07 42.1301C56.0674 39.1313 54.8749 36.2561 52.7545 34.1356C50.634 32.0152 47.7588 30.8227 44.76 30.8201V30.8201Z" fill="url(#paint7_linear)"/>
<path d="M44.76 35.7C44.4948 35.7 44.2404 35.8053 44.0529 35.9928C43.8654 36.1804 43.76 36.4347 43.76 36.7C43.76 36.9652 43.8654 37.2195 44.0529 37.4071C44.2404 37.5946 44.4948 37.7 44.76 37.7C47.62 37.7 49.95 40.7599 49.95 44.5299C49.95 44.7952 50.0554 45.0495 50.2429 45.2371C50.4304 45.4246 50.6848 45.5299 50.95 45.5299C51.2152 45.5299 51.4696 45.4246 51.6571 45.2371C51.8447 45.0495 51.95 44.7952 51.95 44.5299C52 39.6599 48.72 35.7 44.76 35.7Z" fill="url(#paint8_linear)"/>
<path d="M19.2401 30.8201C16.2413 30.8227 13.3661 32.0152 11.2456 34.1356C9.12514 36.2561 7.9327 39.1313 7.93005 42.1301C7.93005 42.3953 8.03541 42.6496 8.22295 42.8372C8.41048 43.0247 8.66484 43.1301 8.93005 43.1301C9.19527 43.1301 9.44962 43.0247 9.63716 42.8372C9.8247 42.6496 9.93005 42.3953 9.93005 42.1301C9.9327 39.6617 10.9144 37.2952 12.6598 35.5498C14.4052 33.8044 16.7717 32.8227 19.2401 32.8201C19.3714 32.8201 19.5014 32.7942 19.6227 32.7439C19.7441 32.6937 19.8543 32.62 19.9472 32.5272C20.04 32.4343 20.1137 32.3241 20.1639 32.2028C20.2142 32.0814 20.2401 31.9514 20.2401 31.8201C20.2401 31.6887 20.2142 31.5587 20.1639 31.4374C20.1137 31.3161 20.04 31.2058 19.9472 31.113C19.8543 31.0201 19.7441 30.9464 19.6227 30.8962C19.5014 30.8459 19.3714 30.8201 19.2401 30.8201Z" fill="url(#paint9_linear)"/>
<path d="M19.24 35.7C15.24 35.7 12.05 39.6999 12.05 44.5299C12.05 44.7952 12.1554 45.0495 12.3429 45.2371C12.5305 45.4246 12.7848 45.5299 13.05 45.5299C13.3153 45.5299 13.5696 45.4246 13.7572 45.2371C13.9447 45.0495 14.05 44.7952 14.05 44.5299C14.05 40.7599 16.38 37.7 19.24 37.7C19.5053 37.7 19.7596 37.5946 19.9472 37.4071C20.1347 37.2195 20.24 36.9652 20.24 36.7C20.24 36.4347 20.1347 36.1804 19.9472 35.9928C19.7596 35.8053 19.5053 35.7 19.24 35.7Z" fill="url(#paint10_linear)"/>
<path d="M33.0001 53.25V50.7C33.0001 50.4347 32.8947 50.1804 32.7072 49.9928C32.5196 49.8053 32.2653 49.7 32.0001 49.7C31.7349 49.7 31.4805 49.8053 31.293 49.9928C31.1054 50.1804 31.0001 50.4347 31.0001 50.7V53.25C30.0738 53.493 29.2677 54.0651 28.7326 54.8593C28.1975 55.6534 27.9699 56.6153 28.0925 57.5651C28.215 58.5148 28.6792 59.3875 29.3984 60.0198C30.1176 60.6522 31.0424 61.0009 32.0001 61.0009C32.9577 61.0009 33.8826 60.6522 34.6017 60.0198C35.3209 59.3875 35.7851 58.5148 35.9077 57.5651C36.0302 56.6153 35.8026 55.6534 35.2675 54.8593C34.7324 54.0651 33.9263 53.493 33.0001 53.25V53.25ZM33.0001 58.7099V57.7099C33.0001 57.4447 32.8947 57.1904 32.7072 57.0028C32.5196 56.8153 32.2653 56.7099 32.0001 56.7099C31.7349 56.7099 31.4805 56.8153 31.293 57.0028C31.1054 57.1904 31.0001 57.4447 31.0001 57.7099V58.7099C30.6367 58.4914 30.3549 58.1597 30.1979 57.7658C30.0409 57.3718 30.0173 56.9373 30.1308 56.5286C30.2442 56.12 30.4884 55.7598 30.826 55.5032C31.1636 55.2465 31.576 55.1075 32.0001 55.1075C32.4241 55.1075 32.8365 55.2465 33.1741 55.5032C33.5117 55.7598 33.756 56.12 33.8694 56.5286C33.9828 56.9373 33.9592 57.3718 33.8022 57.7658C33.6452 58.1597 33.3635 58.4914 33.0001 58.7099V58.7099Z" fill="url(#paint11_linear)"/>
<defs>
<linearGradient id="paint0_linear" x1="10.3401" y1="13.6002" x2="26.5101" y2="13.6002" gradientUnits="userSpaceOnUse">
<stop stop-color="#C6C6C6"/>
<stop offset="0.42" stop-color="#AEAEAE"/>
<stop offset="1" stop-color="#878787"/>
</linearGradient>
<linearGradient id="paint1_linear" x1="643.217" y1="290.313" x2="904.545" y2="290.313" gradientUnits="userSpaceOnUse">
<stop stop-color="#C6C6C6"/>
<stop offset="0.42" stop-color="#AEAEAE"/>
<stop offset="1" stop-color="#878787"/>
</linearGradient>
<linearGradient id="paint2_linear" x1="15.52" y1="46.3102" x2="48.48" y2="46.3102" gradientUnits="userSpaceOnUse">
<stop stop-color="#31446D"/>
<stop offset="0.41" stop-color="#243355"/>
<stop offset="1" stop-color="#0F152C"/>
</linearGradient>
<linearGradient id="paint3_linear" x1="493.604" y1="1180.08" x2="2074.46" y2="1180.08" gradientUnits="userSpaceOnUse">
<stop stop-color="#C6C6C6"/>
<stop offset="0.42" stop-color="#AEAEAE"/>
<stop offset="1" stop-color="#878787"/>
</linearGradient>
<linearGradient id="paint4_linear" x1="24.52" y1="33.1101" x2="39.47" y2="33.1101" gradientUnits="userSpaceOnUse">
<stop stop-color="#141C2C"/>
<stop offset="0.84" stop-color="#090D14"/>
<stop offset="1" stop-color="#070A0F"/>
</linearGradient>
<linearGradient id="paint5_linear" x1="356.52" y1="143.869" x2="443.196" y2="143.869" gradientUnits="userSpaceOnUse">
<stop stop-color="#141C2C"/>
<stop offset="0.84" stop-color="#090D14"/>
<stop offset="1" stop-color="#070A0F"/>
</linearGradient>
<linearGradient id="paint6_linear" x1="207.334" y1="139.535" x2="294.01" y2="139.535" gradientUnits="userSpaceOnUse">
<stop stop-color="#141C2C"/>
<stop offset="0.84" stop-color="#090D14"/>
<stop offset="1" stop-color="#070A0F"/>
</linearGradient>
<linearGradient id="paint7_linear" x1="582.692" y1="485.921" x2="733.982" y2="485.921" gradientUnits="userSpaceOnUse">
<stop stop-color="#141C2C"/>
<stop offset="0.84" stop-color="#090D14"/>
<stop offset="1" stop-color="#070A0F"/>
</linearGradient>
<linearGradient id="paint8_linear" x1="402.343" y1="434.994" x2="469.26" y2="434.994" gradientUnits="userSpaceOnUse">
<stop stop-color="#141C2C"/>
<stop offset="0.84" stop-color="#090D14"/>
<stop offset="1" stop-color="#070A0F"/>
</linearGradient>
<linearGradient id="paint9_linear" x1="105.548" y1="485.798" x2="256.961" y2="485.798" gradientUnits="userSpaceOnUse">
<stop stop-color="#141C2C"/>
<stop offset="0.84" stop-color="#090D14"/>
<stop offset="1" stop-color="#070A0F"/>
</linearGradient>
<linearGradient id="paint10_linear" x1="110.74" y1="434.994" x2="177.652" y2="434.994" gradientUnits="userSpaceOnUse">
<stop stop-color="#141C2C"/>
<stop offset="0.84" stop-color="#090D14"/>
<stop offset="1" stop-color="#070A0F"/>
</linearGradient>
<linearGradient id="paint11_linear" x1="28.0901" y1="55.35" x2="35.9101" y2="55.35" gradientUnits="userSpaceOnUse">
<stop stop-color="#FFCC05"/>
<stop offset="1" stop-color="#F9A31A"/>
</linearGradient>
</defs>
</svg>
